<svg width="512" height="512" xmlns="http://www.w3.org/2000/svg">

 <g>
  <title>Layer 1</title>
  <path stroke="null" id="svg_1" fill="#000000" d="m220.76973,36.96565c22.67879,-11.9542 45.35757,-11.9542 68.03636,0l158.75154,83.67925c22.67879,11.9542 34.0182,29.88543 34.0182,53.79379l0,167.3585c0,23.90836 -11.33938,41.83962 -34.0182,53.79379l-158.75154,83.67925c-22.67879,11.9542 -45.35757,11.9542 -68.03636,0l-158.75154,-83.67925c-22.67879,-11.9542 -34.0182,-29.88543 -34.0182,-53.79379l0,-167.3585c0,-23.90836 11.33938,-41.83962 34.0182,-53.79379l158.75154,-83.67925zm-70.93252,183.05837l0,15.61524l60.97804,26.47796l0,-15.95468l-60.97804,-26.13852zm191.11416,-70.9474l0,125.26121l60.60625,25.79905l0,-20.70713l-45.36174,-17.65197l1.85908,-4.07354l80.31257,32.5883l1.85908,-4.07354l-38.66902,-15.95468l0,-136.12396l-60.97804,0l0,14.93629l0.37183,-0.00003zm115.6352,203.33727l-55.02898,-24.78066l-165.45874,-70.60793l40.15627,52.95595l125.30244,56.35058l0,-27.83582l55.02901,13.91788zm-179.9596,-37.34072l-30.11719,-12.56005l-2.23091,4.07354l43.13083,17.99145l35.32266,46.50618l78.08163,0l-124.18702,-56.01111zm-126.78976,-57.02949l0,113.0406l60.97804,0l0,-85.54422l-60.97804,-27.49638zm-91.46706,-56.69002l0,-0.33947l-3.34636,-1.35783l-2.23091,4.07354l71.01715,30.55153l-2.97453,5.77086l89.97981,40.3959l0,-13.57847l-152.44517,-65.51606zm253.95128,60.76353l-97.04433,-127.97689l-65.43985,0l0,46.84565l-33.83541,-2.71568l196.31959,83.84692z"/>
 </g>
</svg>